# xmcd
#
# Track frame offsets:
#	150
#	14968
#	32280
#	48686
#	65302
#	82561
#	99381
#	118119
#	137960
#	155910
#	170237
#	187977
#	216393
#	231188
#	249899
#	271682
#
# Disc length: 3866 seconds
#
# Revision: 1
# Processed by: cddbd v1.5.2PL0 Copyright (c) Steve Scherf et al.
# Submitted via: audiograbber 1.83.01
#
DISCID=dd0f1810
DTITLE=Brad Paisley - CKC-047
DYEAR=1900
DGENRE=Karaoke
TTITLE0=I'm Gonna Miss Her (Fishing Song)
TTITLE1=Celebrity
TTITLE2=Mud On The Tires
TTITLE3=Who Needs Pictures
TTITLE4=Little Moments
TTITLE5=We Danced
TTITLE6=She's Everthing
TTITLE7=Alcohol
TTITLE8=He Didn't Have To Be
TTITLE9=Wrapped Around
TTITLE10=Time Well Wasted
TTITLE11=I Wish You'd Stay
TTITLE12=Me Neither
TTITLE13=Two People Fell In Love
TTITLE14=Out In The Parking Lot
TTITLE15=Whiskey Lullaby
EXTD=
EXTT0=
EXTT1=
EXTT2=
EXTT3=
EXTT4=
EXTT5=
EXTT6=
EXTT7=
EXTT8=
EXTT9=
EXTT10=
EXTT11=
EXTT12=
EXTT13=
EXTT14=
EXTT15=
PLAYORDER=
